<svg xmlns="http://www.w3.org/2000/svg" viewBox="0 0 512 512">
  <rect width="512" height="512" rx="112" fill="#0f172a" />
  <path d="M256 112c-88.3 0-160 62.7-160 140 0 42.4 22.3 80.3 58.7 106.6v71.4c0 18.2 20.3 28.7 35.2 18.1L248 406.8c2.6.4 5.3.7 8 .7 88.3 0 160-62.7 160-140S344.3 112 256 112z" fill="#3b82f6" />
  <path d="M256 176c-30.8 0-56 25.2-56 56v32h-8c-13.2 0-24 10.8-24 24v80c0 13.2 10.8 24 24 24h128c13.2 0 24-10.8 24-24v-80c0-13.2-10.8-24-24-24h-8v-32c0-30.8-25.2-56-56-56zm0 32c13.2 0 24 10.8 24 24v32h-48v-32c0-13.2 10.8-24 24-24z" fill="#ffffff" />
</svg>
